<svg width="20" height="20" viewBox="0 0 20 20" fill="none" xmlns="http://www.w3.org/2000/svg">
<rect width="20" height="20" rx="5" fill="#568D5C" fill-opacity="0.3"/>
<path d="M13.3334 16.296V14.8145C13.3334 14.0287 13.0212 13.2751 12.4655 12.7194C11.9099 12.1637 11.1562 11.8516 10.3704 11.8516H4.44447C3.65864 11.8516 2.905 12.1637 2.34934 12.7194C1.79367 13.2751 1.48151 14.0287 1.48151 14.8145V16.296" stroke="#568D5C" stroke-width="2" stroke-linecap="round" stroke-linejoin="round"/>
<path d="M7.40745 8.88882C9.04385 8.88882 10.3704 7.56225 10.3704 5.92585C10.3704 4.28945 9.04385 2.96289 7.40745 2.96289C5.77105 2.96289 4.44449 4.28945 4.44449 5.92585C4.44449 7.56225 5.77105 8.88882 7.40745 8.88882Z" stroke="#568D5C" stroke-width="2" stroke-linecap="round" stroke-linejoin="round"/>
<path d="M17.7778 16.2974V14.8159C17.7773 14.1594 17.5588 13.5216 17.1566 13.0028C16.7544 12.4839 16.1912 12.1133 15.5556 11.9492" stroke="#568D5C" stroke-width="2" stroke-linecap="round" stroke-linejoin="round"/>
<path d="M12.5926 3.05957C13.23 3.22276 13.7949 3.59342 14.1983 4.11313C14.6017 4.63284 14.8207 5.27204 14.8207 5.92994C14.8207 6.58784 14.6017 7.22704 14.1983 7.74675C13.7949 8.26646 13.23 8.63712 12.5926 8.80031" stroke="#568D5C" stroke-width="2" stroke-linecap="round" stroke-linejoin="round"/>
</svg>
