<svg width="19" height="24" viewBox="0 0 19 24" fill="none" xmlns="http://www.w3.org/2000/svg">
<path d="M18.9114 10.2742L16.7673 1.87494C16.685 1.50767 16.5175 1.16491 16.2782 0.874355C16.039 0.583798 15.7347 0.353589 15.3901 0.202327C15.0454 0.0510642 14.67 -0.0170106 14.2942 0.00360161C13.9184 0.0242138 13.5527 0.132935 13.2267 0.320982L5.75193 4.64846C5.29547 4.90676 4.9362 5.30749 4.72908 5.78934L0.185229 16.3916C0.0629577 16.6845 0 16.9988 0 17.3162C0 17.6335 0.0629577 17.9478 0.185229 18.2407C0.302706 18.5359 0.4781 18.8046 0.701068 19.0309C0.924036 19.2573 1.19006 19.4367 1.48347 19.5586L11.1023 23.6893C11.4089 23.8131 11.7355 23.8797 12.0661 23.886C12.5371 23.8813 12.9964 23.7391 13.3877 23.4771C13.7791 23.215 14.0854 22.8444 14.2692 22.4108L18.813 11.8085C19.0223 11.3238 19.0571 10.7816 18.9114 10.2742ZM17.3574 11.1593L12.7349 21.7616C12.6994 21.8559 12.6442 21.9415 12.5729 22.0128C12.5017 22.084 12.4161 22.1392 12.3218 22.1747C12.2283 22.2137 12.1281 22.2337 12.0268 22.2337C11.9255 22.2337 11.8252 22.2137 11.7317 22.1747L2.11292 18.0243C2.01524 17.9932 1.92479 17.9429 1.84689 17.8762C1.769 17.8096 1.70525 17.728 1.65941 17.6363C1.61357 17.5447 1.58656 17.4447 1.58 17.3424C1.57343 17.2401 1.58743 17.1376 1.62116 17.0408L6.24369 6.43846C6.30341 6.28692 6.41493 6.16147 6.55842 6.08439L14.0528 1.81593C14.1623 1.73902 14.2928 1.6978 14.4266 1.69791C14.5241 1.6802 14.6241 1.6802 14.7216 1.69791C14.8322 1.74109 14.9309 1.81 15.0096 1.89894C15.0883 1.98788 15.1447 2.09428 15.174 2.20933L17.3574 10.6872C17.4071 10.8407 17.4071 11.0059 17.3574 11.1593Z" fill="#353434"/>
<path d="M12.2827 9.54631C13.2713 9.54631 14.0727 8.7449 14.0727 7.75631C14.0727 6.76772 13.2713 5.96631 12.2827 5.96631C11.2941 5.96631 10.4927 6.76772 10.4927 7.75631C10.4927 8.7449 11.2941 9.54631 12.2827 9.54631Z" fill="#353434"/>
</svg>
