<svg width="21" height="19" viewBox="0 0 21 19" fill="none" xmlns="http://www.w3.org/2000/svg">
<path fill-rule="evenodd" clip-rule="evenodd" d="M21 16.6826C21 17.9627 19.9783 19 18.7174 19H2.28261C1.0217 19 0 17.9627 0 16.6826V3.24159C0 2.21776 0.81763 1.38766 1.82609 1.38766H11.0346L14.732 0.0278042C14.9662 -0.058867 15.2255 0.063956 15.3108 0.300796L15.7002 1.38766H17.3478C18.3563 1.38766 19.1739 2.21776 19.1739 3.24159V4.16856C20.1824 4.16856 21 4.99865 21 6.02249V16.6826ZM1.82609 2.31463C1.32209 2.31463 0.913043 2.72991 0.913043 3.24159C0.913043 3.75328 1.32209 4.16856 1.82609 4.16856H3.3988H3.48509C3.49102 4.16624 3.49467 4.16114 3.50061 4.15882L8.51413 2.31463H1.82609ZM15.1008 2.39852L14.616 1.04329L13.6792 1.38766H13.6806L11.1633 2.31463H11.1588L6.11922 4.16856H15.7345L15.1008 2.39852ZM18.2609 3.24159C18.2609 2.72991 17.8518 2.31463 17.3478 2.31463H16.0317L16.6955 4.16856H18.2609V3.24159ZM19.1739 5.09552H1.82609C1.49191 5.09552 1.18239 4.99773 0.913043 4.83829V16.6826C0.913043 17.4506 1.52661 18.073 2.28261 18.073H18.7174C19.4738 18.073 20.087 17.4506 20.087 16.6826V13.4382H18.2609C17.2524 13.4382 16.4348 12.6081 16.4348 11.5843C16.4348 10.5604 17.2524 9.73035 18.2609 9.73035H20.087V6.02249C20.087 5.5108 19.6779 5.09552 19.1739 5.09552ZM20.087 12.5112V10.6573H18.2609C17.7569 10.6573 17.3478 11.0726 17.3478 11.5843C17.3478 12.096 17.7569 12.5112 18.2609 12.5112H20.087ZM18.2609 11.1208H19.1739V12.0478H18.2609V11.1208Z" fill="#353434"/>
</svg>
