<svg width="17" height="23" viewBox="0 0 17 23" fill="none" xmlns="http://www.w3.org/2000/svg">
<path d="M11.5 2.46429H10.6786C10.6786 1.10564 9.57293 0 8.21429 0C6.85564 0 5.75 1.10564 5.75 2.46429H4.92857C4.47514 2.46429 4.10714 2.83146 4.10714 3.28571V4.10714H2.31725C1.03993 4.10714 0 5.14707 0 6.42439V20.6819C0 21.9601 1.03993 23 2.31725 23H14.1105C15.3886 23 16.4286 21.9601 16.4286 20.6828V6.42439C16.4286 5.14707 15.3886 4.10714 14.1113 4.10714H12.3214V3.28571C12.3214 2.83146 11.9534 2.46429 11.5 2.46429ZM8.21429 1.64286C8.66689 1.64286 9.03571 2.01086 9.03571 2.46429H7.39286C7.39286 2.01086 7.76168 1.64286 8.21429 1.64286ZM5.75 4.10714H10.6786V5.75H5.75V4.10714ZM14.1113 5.75C14.4826 5.75 14.7857 6.05229 14.7857 6.42439V20.6819C14.7857 21.0549 14.4826 21.3571 14.1113 21.3571H2.31725C1.94596 21.3571 1.64286 21.0549 1.64286 20.6828V6.42439C1.64286 6.05229 1.94596 5.75 2.31725 5.75H4.10714V6.57143C4.10714 7.02568 4.47514 7.39286 4.92857 7.39286H11.5C11.9534 7.39286 12.3214 7.02568 12.3214 6.57143V5.75H14.1113Z" fill="#353434"/>
<path d="M5.74995 9.03564H3.28566C2.83223 9.03564 2.46423 9.40282 2.46423 9.85707V12.3214C2.46423 12.7756 2.83223 13.1428 3.28566 13.1428H5.74995C6.20338 13.1428 6.57138 12.7756 6.57138 12.3214V9.85707C6.57138 9.40282 6.20338 9.03564 5.74995 9.03564ZM4.92852 11.4999H4.10709V10.6785H4.92852V11.4999Z" fill="#353434"/>
<path d="M7.39282 11.0895C7.39282 11.5437 7.76082 11.9109 8.21425 11.9109H13.1428C13.5963 11.9109 13.9643 11.5437 13.9643 11.0895C13.9643 10.6352 13.5963 10.2681 13.1428 10.2681H8.21425C7.76082 10.2681 7.39282 10.6352 7.39282 11.0895Z" fill="#353434"/>
<path d="M5.74995 14.7861H3.28566C2.83223 14.7861 2.46423 15.1533 2.46423 15.6076V18.0718C2.46423 18.5261 2.83223 18.8933 3.28566 18.8933H5.74995C6.20338 18.8933 6.57138 18.5261 6.57138 18.0718V15.6076C6.57138 15.1533 6.20338 14.7861 5.74995 14.7861ZM4.92852 17.2504H4.10709V16.429H4.92852V17.2504Z" fill="#353434"/>
<path d="M13.1428 16.0176H8.21425C7.76082 16.0176 7.39282 16.3848 7.39282 16.839C7.39282 17.2933 7.76082 17.6604 8.21425 17.6604H13.1428C13.5963 17.6604 13.9643 17.2933 13.9643 16.839C13.9643 16.3848 13.5963 16.0176 13.1428 16.0176Z" fill="#353434"/>
</svg>
