<svg width="63" height="13" viewBox="0 0 63 13" fill="none" xmlns="http://www.w3.org/2000/svg">
<path d="M31.5 1L33.2453 4.53574L37.1482 5.1062L34.3241 7.85685L34.9906 11.7428L31.5 9.90713L28.0095 11.7428L28.6759 7.85685L25.8519 5.1062L29.7547 4.53574L31.5 1Z" fill="#F45816" stroke="#F45816" stroke-width="2" stroke-linecap="round" stroke-linejoin="round"/>
<path d="M43.9259 1L45.6712 4.53574L49.5741 5.1062L46.75 7.85685L47.4165 11.7428L43.9259 9.90713L40.4354 11.7428L41.1018 7.85685L38.2778 5.1062L42.1806 4.53574L43.9259 1Z" fill="#F45816" stroke="#F45816" stroke-width="2" stroke-linecap="round" stroke-linejoin="round"/>
<path d="M19.0741 1L20.8193 4.53574L24.7222 5.1062L21.8981 7.85685L22.5646 11.7428L19.0741 9.90713L15.5835 11.7428L16.25 7.85685L13.4259 5.1062L17.3288 4.53574L19.0741 1Z" fill="#F45816" stroke="#F45816" stroke-width="2" stroke-linecap="round" stroke-linejoin="round"/>
<path d="M6.64815 1L8.39343 4.53574L12.2963 5.1062L9.47222 7.85685L10.1387 11.7428L6.64815 9.90713L3.15759 11.7428L3.82407 7.85685L1 5.1062L4.90287 4.53574L6.64815 1Z" fill="#F45816" stroke="#F45816" stroke-width="2" stroke-linecap="round" stroke-linejoin="round"/>
<path d="M56.3519 1L58.0972 4.53574L62 5.1062L59.176 7.85685L59.8424 11.7428L56.3519 9.90713L52.8613 11.7428L53.5278 7.85685L50.7037 5.1062L54.6066 4.53574L56.3519 1Z" stroke="black" stroke-width="2" stroke-linecap="round" stroke-linejoin="round"/>
</svg>
