<svg width="82" height="90" viewBox="0 0 82 90" fill="none" xmlns="http://www.w3.org/2000/svg">
<path d="M81.0147 0H0V90H81.0147V0Z" fill="#6B6868"/>
<path d="M32.6617 8.44104H5.63232V35.4705H32.6617V8.44104Z" fill="#A0E8E8"/>
<path d="M73.853 8.60278H39.0588V12.544H73.853V8.60278Z" fill="#A0E8E8"/>
<path d="M73.853 16.4855H39.0588V20.4267H73.853V16.4855Z" fill="#A0E8E8"/>
<path d="M73.853 24.3677H39.0588V28.3089H73.853V24.3677Z" fill="#A0E8E8"/>
<path d="M73.853 32.2352H39.0588V36.1764H73.853V32.2352Z" fill="#A0E8E8"/>
<path d="M75.397 40.1177H5.63232V44.0588H75.397V40.1177Z" fill="#A0E8E8"/>
<path d="M69.0883 48H18.1177V51.9412H69.0883V48Z" fill="#A0E8E8"/>
<path d="M69.0883 55.8678H18.1177V59.809H69.0883V55.8678Z" fill="#A0E8E8"/>
<path d="M69.0883 79.4999H18.1177V83.4411H69.0883V79.4999Z" fill="#A0E8E8"/>
<path d="M69.0883 63.7501H18.1177V67.6913H69.0883V63.7501Z" fill="#A0E8E8"/>
<path d="M75.397 71.6176H5.63232V75.5587H75.397V71.6176Z" fill="#A0E8E8"/>
<path d="M12.6471 48H8.83826V51.9412H12.6471V48Z" fill="#A0E8E8"/>
<path d="M12.6471 55.8678H8.83826V59.809H12.6471V55.8678Z" fill="#A0E8E8"/>
<path d="M12.6471 79.4999H8.83826V83.4411H12.6471V79.4999Z" fill="#A0E8E8"/>
<path d="M12.6471 63.7501H8.83826V67.6913H12.6471V63.7501Z" fill="#A0E8E8"/>
<path fill-rule="evenodd" clip-rule="evenodd" d="M23.0736 30.0885C23.3236 30.7503 24.353 31.5738 25.5295 32.0003C28.9559 33.2503 30.8383 33.4415 32.1618 35.4562H6.20593C8.02946 32.0591 13.7501 34.2944 15.2795 30.0885C15.6177 29.1474 15.6324 27.6768 15.4265 26.7062L19.1765 26.7797L22.9265 26.7062C22.7059 27.6768 22.7206 29.1621 23.0736 30.0885Z" fill="#F0C17D"/>
<path fill-rule="evenodd" clip-rule="evenodd" d="M14.647 30.7797L19.1617 31.265L23.7352 30.7502L23.5882 35.4561H14.8087L14.647 30.7797Z" fill="#A0E8E8"/>
<path fill-rule="evenodd" clip-rule="evenodd" d="M19.2352 28.9708C19.2204 28.9708 19.191 28.9708 19.1763 28.9708C18.3969 28.9708 18.0146 28.9561 17.5881 28.7797C17.1763 28.6032 16.9851 28.2061 16.4116 27.662C15.9263 27.2061 15.0734 26.7355 14.8675 26.2208C14.6175 25.6032 14.6763 24.9414 14.5587 24.0591C14.1175 24.3091 13.6322 23.0297 13.544 22.6179C13.4116 22.0002 12.9557 20.9561 12.8234 20.2502C12.7499 19.8532 12.794 19.5297 12.9263 19.4267C13.2204 19.2061 13.5293 19.3385 13.9704 19.9561C13.941 19.0738 13.9263 18.3238 14.044 17.6767C14.6616 14.162 23.2646 12.1767 24.2204 17.662C24.3381 18.3091 24.3234 19.0591 24.294 19.9561C24.7352 19.3385 25.044 19.2061 25.3381 19.4267C25.4704 19.5297 25.5146 19.8532 25.441 20.2502C25.3087 20.9561 24.8528 22.0002 24.7204 22.6179C24.6322 23.0297 24.1616 24.2797 23.7204 24.0738C23.6175 24.9414 23.6763 25.5885 23.4263 26.1914C23.2204 26.6914 22.3675 27.1767 21.8822 27.6326C21.3234 28.1767 21.1175 28.5885 20.7204 28.7649C20.3234 28.9414 19.9557 28.9561 19.2352 28.9708Z" fill="#FFDBA7"/>
<path fill-rule="evenodd" clip-rule="evenodd" d="M22.8528 29.1471C22.9704 29.9412 23.2057 30.2942 23.7351 30.7059L21.4851 34.5589L19.1028 31.2206C20.2793 30.5442 22.3969 29.7353 22.8528 29.1471Z" fill="#6B6868"/>
<path fill-rule="evenodd" clip-rule="evenodd" d="M15.4263 29.1471C15.3087 29.9412 15.0734 30.2942 14.5439 30.7059L16.7939 34.5589L19.1763 31.2206C17.9998 30.5442 15.8969 29.7353 15.4263 29.1471Z" fill="#6B6868"/>
<path fill-rule="evenodd" clip-rule="evenodd" d="M14.647 30.6913C12.397 32.6913 7.99991 31.853 5.61755 34.706V35.456H15.794C15.3823 33.4413 14.9852 31.6619 14.647 30.6913Z" fill="#0EA8B3"/>
<path fill-rule="evenodd" clip-rule="evenodd" d="M19.2499 31.3677L20.4264 33.0883L20.397 33.5295L19.4264 34.5148L20.0146 35.456H18.2646L18.8528 34.5001L17.897 33.5148L17.8676 33.0883L19.0293 31.353L19.2499 31.3677Z" fill="#14BAC6"/>
<path fill-rule="evenodd" clip-rule="evenodd" d="M19.2499 31.3677L20.4264 33.0883L20.397 33.5295L19.4264 34.5148L20.0146 35.456H19.147V31.353L19.2499 31.3677Z" fill="#0EA8B3"/>
<path fill-rule="evenodd" clip-rule="evenodd" d="M14.647 30.6913C14.147 31.103 13.2647 31.5442 12.3382 31.8825L12.3823 31.9119L12.2941 35.456H15.7794C15.3823 33.4413 14.9852 31.6766 14.647 30.6913Z" fill="#14BAC6"/>
<path fill-rule="evenodd" clip-rule="evenodd" d="M15.2205 16.7942C14.4852 17.6619 14.3088 21.0736 14.3676 22.2648C13.1323 17.7942 12.4705 14.5884 15.147 12.5736C18.6617 9.92659 22.6029 11.5589 23.2499 12.6472C25.8382 14.0736 24.9411 18.0883 24.1617 21.6325C24.147 20.2648 23.4999 17.0001 22.9852 15.6325C21.0293 14.3825 17.1176 18.0589 15.2205 16.7942Z" fill="#703100"/>
<path fill-rule="evenodd" clip-rule="evenodd" d="M23.6175 30.6913C25.8528 32.6913 30.2646 31.853 32.6469 34.706V35.456H22.4705C22.8969 33.4413 23.294 31.6619 23.6175 30.6913Z" fill="#06929C"/>
<path fill-rule="evenodd" clip-rule="evenodd" d="M23.6322 30.6913C23.9263 30.9413 25.9116 31.8972 25.8969 31.9119L25.9852 35.456H22.4999C22.8969 33.4413 23.294 31.6766 23.6322 30.6913Z" fill="#0EA8B3"/>
</svg>
