<svg width="64" height="52" viewBox="0 0 64 52" fill="none" xmlns="http://www.w3.org/2000/svg">
<path d="M12.869 22.5803V21.1078C12.1696 21.9177 11.588 22.1165 10.2628 22.1165C10.2554 22.1165 10.2481 22.1165 10.2407 22.1165C10.2407 22.1165 10.2407 22.1165 10.2333 22.1165C10.226 22.1165 10.2333 22.1165 10.226 22.1165C10.2186 22.1165 10.2113 22.1165 10.2039 22.1165C8.87869 22.1165 8.29707 21.9177 7.59766 21.1078V22.5803L10.226 25.0908L12.869 22.5803Z" fill="#F2C28D"/>
<path d="M6.47134 26.4749L5.07988 26.5927L4.4909 24.1779L2.23805 24.7521C0.912843 25.2012 0.0146484 26.4381 0.0146484 27.8443V31.496H0.846583H3.2614H3.93137H7.88489L5.31547 27.3068L6.47134 26.4749Z" fill="#035F69"/>
<path d="M18.2436 24.7595L15.9907 24.1853L15.4017 26.6001L14.0103 26.4823L15.1588 27.3069L12.5894 31.496H16.5429H17.2128H19.6277H20.4596V27.8443C20.467 26.4381 19.5688 25.2012 18.2436 24.7595Z" fill="#035F69"/>
<path d="M8.48852 26.6001L7.92163 25.9964L9.21739 30.4064L9.54133 26.8651L9.41617 25.7976L8.48852 26.6001Z" fill="#EDEDED"/>
<path d="M11.0653 25.7976L10.9475 26.8651L11.2641 30.4064L12.5672 25.9964L11.9929 26.6001L11.0653 25.7976Z" fill="#EDEDED"/>
<path d="M7.92156 25.9964L8.48845 26.6001L9.41609 25.7976L10.2407 25.0908L7.61234 22.5803L7.03809 22.9999L7.92156 25.9964Z" fill="#C6C6C6"/>
<path d="M11.0653 25.7976L11.9929 26.6001L12.5672 25.9964L13.4507 22.9999L12.869 22.5803L10.2407 25.0908L11.0653 25.7976Z" fill="#C6C6C6"/>
<path d="M10.2408 25.0908L9.41626 25.7976L9.54142 26.8651H10.9476L11.0654 25.7976L10.2408 25.0908Z" fill="#28324E"/>
<path d="M10.9477 26.8651H9.54147L9.21753 30.4064L9.54147 31.4886H10.9477L11.2642 30.4064L10.9477 26.8651Z" fill="#485678"/>
<path d="M10.2188 22.1165C10.2262 22.1165 10.2335 22.1165 10.2409 22.1165C10.2409 22.1165 10.2409 22.1165 10.2483 22.1165C10.2556 22.1165 10.2483 22.1165 10.2556 22.1165C10.263 22.1165 10.2704 22.1165 10.2777 22.1165C11.6029 22.1165 12.1845 21.9177 12.884 21.1078C13.1932 20.7471 13.5245 20.2759 13.9588 19.6427C14.3196 19.1053 14.6067 18.3102 14.8202 17.3016C14.8497 17.3089 14.8718 17.3236 14.9012 17.3236C14.9896 17.3384 15.0853 17.331 15.181 17.2942C15.5712 17.1469 15.689 16.5948 15.7994 15.888C15.9393 15.0119 15.9025 14.2315 15.4166 14.1505C15.1515 14.1063 14.8791 14.283 14.6583 14.5922V12.229C14.6583 11.1909 13.819 10.3589 12.7882 10.3589H7.73038C6.6923 10.3589 5.86037 11.1982 5.86037 12.229V14.5922C5.6395 14.283 5.3671 14.1063 5.10206 14.1505C4.61615 14.2315 4.53516 15.0119 4.67505 15.888C4.79284 16.6021 4.94745 17.1469 5.33765 17.2942C5.426 17.331 5.52171 17.3384 5.61742 17.3236C5.64686 17.3163 5.66895 17.3089 5.6984 17.3016C5.91191 18.3102 6.19903 19.1127 6.55978 19.6427C6.99416 20.2759 7.32546 20.7544 7.63467 21.1078C8.312 21.9177 8.89362 22.1165 10.2188 22.1165Z" fill="#FFD2A1"/>
<path d="M5.83811 14.5922V12.229C5.83811 11.1909 6.6774 10.359 7.70812 10.359H12.766C13.8041 10.359 14.636 11.1982 14.636 12.229V14.5922C14.8569 14.283 15.1293 14.1063 15.3943 14.1505L15.5489 12.1112C15.5857 11.051 15.1882 10.0203 14.4593 9.24725C13.4065 8.12819 12.3537 7.76744 10.2407 7.76744C10.2407 7.76744 10.2407 7.76744 10.2334 7.76744C10.226 7.76744 10.2334 7.76744 10.226 7.76744C8.1204 7.76744 7.0676 8.12819 6.00744 9.24725C5.27858 10.0203 4.87365 11.051 4.91782 12.1112L5.07243 14.1505C5.3522 14.1063 5.6246 14.2757 5.83811 14.5922Z" fill="#7D4E24"/>
<path d="M14.0102 26.4749L15.4017 26.6001L15.9907 24.1853L13.4507 22.9999L12.5672 25.9964L11.2641 30.4064L10.9475 31.4886H11.3598H12.1549H12.5893L15.1587 27.2995L14.0102 26.4749Z" fill="#0593A1"/>
<path d="M7.92174 25.9964L7.03827 22.9999L4.49829 24.1853L5.08727 26.6001L6.47137 26.4749L5.32286 27.2995L7.89229 31.4886H8.32666H9.12178H9.54143L9.21749 30.4064L7.92174 25.9964Z" fill="#0593A1"/>
<path d="M34.3598 15.7702V14.2977C33.6603 15.1076 33.0787 15.3064 31.7535 15.3064C31.7462 15.3064 31.7388 15.3064 31.7314 15.3064C31.7314 15.3064 31.7314 15.3064 31.7241 15.3064C31.7241 15.3064 31.7241 15.3064 31.7167 15.3064C31.7093 15.3064 31.702 15.3064 31.6946 15.3064C30.3694 15.3064 29.7878 15.1076 29.0884 14.2977V15.7702L31.7167 18.2807L34.3598 15.7702Z" fill="#F2C28D"/>
<path d="M27.9619 19.6648L26.5704 19.7826L25.9814 17.3678L23.7286 17.9421C22.396 18.3764 21.4978 19.6207 21.4978 21.0195V24.6712H22.3297H24.7446H25.4145H29.368L26.7986 20.482L27.9619 19.6648Z" fill="#28324E"/>
<path d="M39.734 17.9494L37.4812 17.3752L36.8922 19.79L35.5007 19.6722L36.6493 20.4968L34.0798 24.6859H38.0334H38.7033H41.1181H41.9501V21.0342C41.9574 19.628 41.0592 18.3838 39.734 17.9494Z" fill="#28324E"/>
<path d="M29.9792 19.79L29.4124 19.1863L30.7081 23.5963L31.032 20.055L30.9069 18.9875L29.9792 19.79Z" fill="#EDEDED"/>
<path d="M32.556 18.9875L32.4382 20.055L32.7548 23.5963L34.0579 19.1863L33.4837 19.79L32.556 18.9875Z" fill="#EDEDED"/>
<path d="M29.4123 19.1863L29.9792 19.79L30.9068 18.9875L31.7314 18.2807L29.1031 15.7702L28.5288 16.1899L29.4123 19.1863Z" fill="#C6C6C6"/>
<path d="M32.556 18.9875L33.4837 19.79L34.0579 19.1863L34.9414 16.1899L34.3598 15.7702L31.7314 18.2807L32.556 18.9875Z" fill="#C6C6C6"/>
<path d="M31.7313 18.2807L30.9067 18.9875L31.0319 20.055H32.4381L32.5559 18.9875L31.7313 18.2807Z" fill="#B6312F"/>
<path d="M32.4381 20.055H31.0319L30.708 23.5963L31.0319 24.6785H32.4381L32.7547 23.5963L32.4381 20.055Z" fill="#CF4941"/>
<path d="M31.7093 15.3064C31.7167 15.3064 31.724 15.3064 31.7314 15.3064C31.7314 15.3064 31.7314 15.3064 31.7387 15.3064C31.7387 15.3064 31.7387 15.3064 31.7461 15.3064C31.7535 15.3064 31.7608 15.3064 31.7682 15.3064C33.0934 15.3064 33.675 15.1076 34.3744 14.2978C34.6836 13.937 35.015 13.4658 35.4493 12.8327C35.8101 12.2952 36.0972 11.5001 36.3107 10.4915C36.3402 10.4988 36.3622 10.5136 36.3917 10.5136C36.48 10.5283 36.5757 10.5209 36.6715 10.4841C37.0617 10.3369 37.1795 9.78471 37.2899 9.07793C37.4298 8.20182 37.393 7.42143 36.9071 7.34044C36.642 7.29627 36.3696 7.47296 36.1487 7.78218V5.41153C36.1487 4.37345 35.3094 3.54152 34.2787 3.54152H29.2209C28.1828 3.54152 27.3508 4.38082 27.3508 5.41153V7.77481C27.13 7.4656 26.8576 7.2889 26.5925 7.33308C26.1066 7.41406 26.0256 8.19446 26.1655 9.07057C26.2833 9.78471 26.4379 10.3295 26.8281 10.4768C26.9165 10.5136 27.0122 10.5209 27.1079 10.5062C27.1373 10.4988 27.1594 10.4915 27.1889 10.4841C27.4024 11.4928 27.6895 12.2952 28.0503 12.8253C28.4846 13.4585 28.8159 13.937 29.1252 14.2904C29.8025 15.1076 30.3841 15.3064 31.7093 15.3064Z" fill="#FFD2A1"/>
<path d="M27.3288 7.7748V5.41152C27.3288 4.37344 28.1681 3.54151 29.1988 3.54151H34.2567C35.2947 3.54151 36.1267 4.38081 36.1267 5.41152V7.7748C36.3475 7.46559 36.62 7.2889 36.885 7.33307L37.047 5.29373C37.0838 4.23356 36.6862 3.20285 35.9573 2.42981C34.8972 1.31075 33.8444 0.949997 31.7388 0.949997C31.7388 0.949997 31.7388 0.949997 31.7314 0.949997C31.7314 0.949997 31.7314 0.949997 31.7241 0.949997C29.6184 0.949997 28.5656 1.31075 27.5055 2.42981C26.7766 3.20285 26.3717 4.23356 26.4159 5.29373L26.5705 7.33307C26.8429 7.2889 27.1153 7.46559 27.3288 7.7748Z" fill="#3C3C3B"/>
<path d="M35.5009 19.6648L36.8924 19.79L37.4814 17.3752L34.9414 16.1898L34.0579 19.1863L32.7548 23.5963L32.4382 24.6785H32.8505H33.6456H34.08L36.6494 20.4894L35.5009 19.6648Z" fill="#485678"/>
<path d="M29.4122 19.1863L28.5287 16.1898L25.9888 17.3752L26.5778 19.79L27.9619 19.6648L26.8133 20.4894L29.3828 24.6785H29.8171H30.6123H31.0319L30.708 23.5963L29.4122 19.1863Z" fill="#485678"/>
<path d="M34.3598 42.2743V40.8019C33.6603 41.6117 33.0787 41.8105 31.7535 41.8105C31.7462 41.8105 31.7388 41.8105 31.7314 41.8105C31.7314 41.8105 31.7314 41.8105 31.7241 41.8105C31.7241 41.8105 31.7241 41.8105 31.7167 41.8105C31.7093 41.8105 31.702 41.8105 31.6946 41.8105C30.3694 41.8105 29.7878 41.6117 29.0884 40.8019V42.2743L31.7167 44.7849L34.3598 42.2743Z" fill="#F2C28D"/>
<path d="M27.9619 46.169L26.5704 46.2868L25.9814 43.8719L23.7286 44.4462C22.396 44.8806 21.4978 46.1248 21.4978 47.5236V51.1753H22.3297H24.7446H25.4145H29.368L26.7986 46.9862L27.9619 46.169Z" fill="#28324E"/>
<path d="M39.734 44.4535L37.4812 43.8793L36.8922 46.2941L35.5007 46.1763L36.6493 47.0009L34.0798 51.19H38.0334H38.7033H41.1181H41.9501V47.5383C41.9574 46.1321 41.0592 44.8879 39.734 44.4535Z" fill="#28324E"/>
<path d="M29.9792 46.2941L29.4124 45.6904L30.7081 50.1004L31.032 46.5591L30.9069 45.4916L29.9792 46.2941Z" fill="#EDEDED"/>
<path d="M32.556 45.4916L32.4382 46.5591L32.7548 50.1004L34.0579 45.6904L33.4837 46.2941L32.556 45.4916Z" fill="#EDEDED"/>
<path d="M29.4123 45.6904L29.9792 46.2941L30.9068 45.4916L31.7314 44.7849L29.1031 42.2743L28.5288 42.694L29.4123 45.6904Z" fill="#C6C6C6"/>
<path d="M32.556 45.4916L33.4837 46.2941L34.0579 45.6904L34.9414 42.694L34.3598 42.2743L31.7314 44.7849L32.556 45.4916Z" fill="#C6C6C6"/>
<path d="M31.7313 44.7849L30.9067 45.4916L31.0319 46.5592H32.4381L32.5559 45.4916L31.7313 44.7849Z" fill="#B6312F"/>
<path d="M32.4381 46.5592H31.0319L30.708 50.1004L31.0319 51.1827H32.4381L32.7547 50.1004L32.4381 46.5592Z" fill="#CF4941"/>
<path d="M31.7093 41.8105C31.7167 41.8105 31.724 41.8105 31.7314 41.8105C31.7314 41.8105 31.7314 41.8105 31.7387 41.8105C31.7387 41.8105 31.7387 41.8105 31.7461 41.8105C31.7535 41.8105 31.7608 41.8105 31.7682 41.8105C33.0934 41.8105 33.675 41.6117 34.3744 40.8019C34.6836 40.4411 35.015 39.9699 35.4493 39.3368C35.8101 38.7993 36.0972 38.0042 36.3107 36.9956C36.3402 37.003 36.3622 37.0177 36.3917 37.0177C36.48 37.0324 36.5757 37.025 36.6715 36.9882C37.0617 36.841 37.1795 36.2888 37.2899 35.582C37.4298 34.7059 37.393 33.9255 36.9071 33.8445C36.642 33.8004 36.3696 33.9771 36.1487 34.2863V31.9156C36.1487 30.8776 35.3094 30.0456 34.2787 30.0456H29.2209C28.1828 30.0456 27.3508 30.8849 27.3508 31.9156V34.2789C27.13 33.9697 26.8576 33.793 26.5925 33.8372C26.1066 33.9182 26.0256 34.6986 26.1655 35.5747C26.2833 36.2888 26.4379 36.8336 26.8281 36.9809C26.9165 37.0177 27.0122 37.025 27.1079 37.0103C27.1373 37.003 27.1594 36.9956 27.1889 36.9882C27.4024 37.9969 27.6895 38.7993 28.0503 39.3294C28.4846 39.9626 28.8159 40.4411 29.1252 40.7945C29.8025 41.6117 30.3841 41.8105 31.7093 41.8105Z" fill="#FFD2A1"/>
<path d="M27.3288 34.2789V31.9156C27.3288 30.8775 28.1681 30.0456 29.1988 30.0456H34.2567C35.2947 30.0456 36.1267 30.8849 36.1267 31.9156V34.2789C36.3475 33.9697 36.62 33.793 36.885 33.8372L37.047 31.7978C37.0838 30.7377 36.6862 29.707 35.9573 28.9339C34.8972 27.8149 33.8444 27.4541 31.7388 27.4541C31.7388 27.4541 31.7388 27.4541 31.7314 27.4541C31.7314 27.4541 31.7314 27.4541 31.7241 27.4541C29.6184 27.4541 28.5656 27.8149 27.5055 28.9339C26.7766 29.707 26.3717 30.7377 26.4159 31.7978L26.5705 33.8372C26.8429 33.793 27.1153 33.9697 27.3288 34.2789Z" fill="#3C3C3B"/>
<path d="M35.5009 46.169L36.8924 46.2941L37.4814 43.8793L34.9414 42.694L34.0579 45.6904L32.7548 50.1004L32.4382 51.1826H32.8505H33.6456H34.08L36.6494 46.9935L35.5009 46.169Z" fill="#485678"/>
<path d="M29.4122 45.6904L28.5287 42.694L25.9888 43.8793L26.5778 46.2941L27.9619 46.169L26.8133 46.9935L29.3828 51.1826H29.8171H30.6123H31.0319L30.708 50.1004L29.4122 45.6904Z" fill="#485678"/>
<path d="M55.85 22.5803V21.1078C55.1506 21.9177 54.569 22.1165 53.2438 22.1165C53.2364 22.1165 53.229 22.1165 53.2217 22.1165C53.2217 22.1165 53.2217 22.1165 53.2143 22.1165C53.2143 22.1165 53.2143 22.1165 53.2069 22.1165C53.1996 22.1165 53.1922 22.1165 53.1849 22.1165C51.8596 22.1165 51.278 21.9177 50.5786 21.1078V22.5803L53.2069 25.0908L55.85 22.5803Z" fill="#F2C28D"/>
<path d="M49.4521 26.4749L48.0606 26.5927L47.4716 24.1779L45.2188 24.7521C43.8862 25.1865 42.988 26.4307 42.988 27.8296V31.4812H43.82H46.2348H46.9048H50.8583L48.2889 27.2921L49.4521 26.4749Z" fill="#61554E"/>
<path d="M61.2243 24.7595L58.9714 24.1853L58.3824 26.6001L56.991 26.4823L58.1395 27.3069L55.5701 31.496H59.5236H60.1936H62.6084H63.4403V27.8443C63.4477 26.4381 62.5495 25.2012 61.2243 24.7595Z" fill="#61554E"/>
<path d="M51.4695 26.6001L50.9026 25.9964L52.1983 30.4064L52.5223 26.8651L52.3971 25.7976L51.4695 26.6001Z" fill="#EDEDED"/>
<path d="M54.0463 25.7976L53.9285 26.8651L54.245 30.4064L55.5482 25.9964L54.9739 26.6001L54.0463 25.7976Z" fill="#EDEDED"/>
<path d="M50.9025 25.9964L51.4694 26.6001L52.3971 25.7976L53.2216 25.0908L50.5933 22.5803L50.019 22.9999L50.9025 25.9964Z" fill="#C6C6C6"/>
<path d="M54.0463 25.7976L54.9739 26.6001L55.5482 25.9964L56.4316 22.9999L55.85 22.5803L53.2217 25.0908L54.0463 25.7976Z" fill="#C6C6C6"/>
<path d="M53.2215 25.0908L52.397 25.7976L52.5221 26.8651H53.9283L54.0461 25.7976L53.2215 25.0908Z" fill="#DE8E22"/>
<path d="M53.9284 26.8651H52.5222L52.1982 30.4064L52.5222 31.4886H53.9284L54.245 30.4064L53.9284 26.8651Z" fill="#F89F26"/>
<path d="M53.1995 22.1165C53.2069 22.1165 53.2143 22.1165 53.2216 22.1165C53.2216 22.1165 53.2216 22.1165 53.229 22.1165C53.229 22.1165 53.229 22.1165 53.2363 22.1165C53.2437 22.1165 53.2511 22.1165 53.2584 22.1165C54.5836 22.1165 55.1653 21.9177 55.8647 21.1078C56.1739 20.7471 56.5052 20.2759 56.9396 19.6427C57.3003 19.1053 57.5874 18.3102 57.8009 17.3016C57.8304 17.3089 57.8525 17.3236 57.8819 17.3236C57.9703 17.3384 58.066 17.331 58.1617 17.2942C58.5519 17.1469 58.6697 16.5948 58.7801 15.888C58.92 15.0119 58.8832 14.2315 58.3973 14.1505C58.1322 14.1063 57.8598 14.283 57.639 14.5922V12.229C57.639 11.1909 56.7997 10.3589 55.769 10.3589H50.7111C49.673 10.3589 48.8411 11.1982 48.8411 12.229V14.5922C48.6202 14.283 48.3478 14.1063 48.0828 14.1505C47.5969 14.2315 47.5159 15.0119 47.6558 15.888C47.7736 16.6021 47.9282 17.1469 48.3184 17.2942C48.4067 17.331 48.5024 17.3384 48.5981 17.3236C48.6276 17.3163 48.6497 17.3089 48.6791 17.3016C48.8926 18.3102 49.1797 19.1127 49.5405 19.6427C49.9749 20.2759 50.3062 20.7544 50.6154 21.1078C51.2927 21.9177 51.8743 22.1165 53.1995 22.1165Z" fill="#FFD2A1"/>
<path d="M48.8188 14.5922V12.229C48.8188 11.1909 49.6581 10.359 50.6888 10.359H55.7467C56.7848 10.359 57.6167 11.1982 57.6167 12.229V14.5922C57.8376 14.283 58.11 14.1063 58.375 14.1505L58.5296 12.1112C58.5664 11.051 58.1689 10.0203 57.44 9.24725C56.3872 8.12819 55.3344 7.76744 53.2214 7.76744C53.2214 7.76744 53.2214 7.76744 53.2141 7.76744C53.2141 7.76744 53.2141 7.76744 53.2067 7.76744C51.1011 7.76744 50.0483 8.12819 48.9881 9.24725C48.2593 10.0203 47.8544 11.051 47.8985 12.1112L48.0531 14.1505C48.3329 14.1063 48.6053 14.2757 48.8188 14.5922Z" fill="#F07934"/>
<path d="M56.9912 26.4749L58.3826 26.6001L58.9716 24.1853L56.4316 22.9999L55.5482 25.9964L54.245 30.4064L53.9285 31.4886H54.3408H55.1359H55.5702L58.1397 27.2995L56.9912 26.4749Z" fill="#A18D81"/>
<path d="M50.9025 25.9964L50.019 22.9999L47.479 24.1853L48.068 26.6001L49.4521 26.4749L48.3036 27.2995L50.873 31.4886H51.3074H52.1025H52.5221L52.1982 30.4064L50.9025 25.9964Z" fill="#A18D81"/>
</svg>
