<svg width="21" height="21" viewBox="0 0 21 21" fill="none" xmlns="http://www.w3.org/2000/svg">
<path d="M20.5311 10.7415C20.5311 10.0277 20.4734 9.31015 20.3503 8.60799H10.4724V12.6512H16.129C15.8943 13.9552 15.1401 15.1088 14.0357 15.8418V18.4653H17.4104C19.3921 16.6366 20.5311 13.9359 20.5311 10.7415Z" fill="#4285F4"/>
<path d="M10.4724 21C13.2968 21 15.6787 20.0702 17.4142 18.4653L14.0395 15.8418C13.1006 16.4822 11.8885 16.8449 10.4762 16.8449C7.74414 16.8449 5.42764 14.9969 4.59647 12.5123H1.11401V15.2168C2.8918 18.7623 6.51278 21 10.4724 21Z" fill="#34A853"/>
<path d="M4.59261 12.5123C4.15393 11.2083 4.15393 9.79626 4.59261 8.49224V5.78776H1.114C-0.371333 8.75459 -0.371333 12.25 1.114 15.2168L4.59261 12.5123Z" fill="#FBBC04"/>
<path d="M10.4724 4.15581C11.9654 4.13266 13.4084 4.69594 14.4897 5.72989L17.4796 2.7322C15.5864 0.949785 13.0736 -0.0301567 10.4724 0.000707559C6.51278 0.000707559 2.8918 2.23837 1.11401 5.78776L4.59262 8.49225C5.41994 6.00381 7.74029 4.15581 10.4724 4.15581Z" fill="#EA4335"/>
</svg>
