<svg width="60" height="58" viewBox="0 0 60 58" fill="none" xmlns="http://www.w3.org/2000/svg">
<path d="M50.7757 28.4314C49.0431 28.3241 47.3135 28.6859 45.7692 29.4786C44.2248 30.2714 42.9226 31.4658 41.9998 32.9361C41.9406 33.0342 41.857 33.1152 41.7573 33.1715C41.6575 33.2278 41.5449 33.2574 41.4304 33.2574C41.3158 33.2574 41.2032 33.2278 41.1034 33.1715C41.0037 33.1152 40.9201 33.0342 40.8609 32.9361C39.8756 31.3607 38.4552 30.1042 36.7713 29.3186C35.0874 28.5329 33.212 28.2517 31.3717 28.5088C26.4271 29.2307 22.8643 34.0051 22.8643 39.3636C22.8382 41.6152 23.3783 43.8373 24.4349 45.8257C25.4916 47.8142 27.0309 49.5052 28.9115 50.7436L38.5806 56.8806C39.4307 57.427 40.42 57.7175 41.4306 57.7175C42.4412 57.7175 43.4305 57.427 44.2806 56.8806L53.95 50.7436C55.8306 49.5052 57.3699 47.8141 58.4265 45.8257C59.4831 43.8372 60.0231 41.6152 59.9969 39.3636C59.9964 33.717 56.023 28.8049 50.7757 28.4314Z" fill="#BA5858"/>
<path d="M30.9815 25.837C31.2679 25.7951 31.5562 25.7642 31.8446 25.7426C30.1308 23.2764 27.7382 21.3604 24.9571 20.227C24.6763 20.1061 24.4372 19.9057 24.2691 19.6504C24.1011 19.3951 24.0116 19.0961 24.0116 18.7905C24.0096 18.5721 24.0526 18.3556 24.1377 18.1545C24.2229 17.9533 24.3485 17.7718 24.5067 17.6212C24.6034 17.5291 24.6959 17.4384 24.7652 17.3654C25.255 16.8498 25.6871 16.2822 26.0539 15.6728C27.0187 14.063 27.4971 12.2083 27.4313 10.3326C27.3654 8.4569 26.7581 6.64035 25.6827 5.10215C24.6073 3.56395 23.1097 2.36986 21.3706 1.66396C19.6316 0.958061 17.7254 0.770533 15.8822 1.124C14.0037 1.45274 12.2677 2.33908 10.8998 3.66775C9.53189 4.99642 8.59541 6.70594 8.21216 8.574C7.85815 10.1825 7.9185 11.8546 8.38756 13.4335C8.85662 15.0123 9.71902 16.4461 10.8939 17.6004C11.0533 17.7515 11.1809 17.9329 11.2693 18.134C11.3576 18.3351 11.4049 18.5519 11.4083 18.7715V18.7796C11.4111 19.0878 11.3229 19.3899 11.1547 19.6481C10.9865 19.9064 10.7458 20.1092 10.4628 20.2312C6.58848 21.8361 3.49891 24.8976 1.85866 28.757C0.705687 31.4003 0.127324 34.2583 0.161861 37.1419V39.2204C0.161848 39.6659 0.249575 40.1069 0.420033 40.5185C0.590491 40.93 0.840342 41.304 1.15532 41.619C1.4703 41.934 1.84423 42.1838 2.25578 42.3543C2.66732 42.5248 3.10841 42.6125 3.55386 42.6125H20.4886C20.2745 41.5427 20.1659 40.4546 20.1644 39.3636C20.1644 32.5527 24.8148 26.7375 30.9815 25.837ZM13.7406 14.4492C13.5038 14.2171 13.3688 13.9005 13.3655 13.569C13.3622 13.2374 13.4906 12.9182 13.7227 12.6814C13.9548 12.4446 14.2714 12.3096 14.6029 12.3063C14.9345 12.3029 15.2538 12.4314 15.4906 12.6635C15.7805 12.9796 16.1329 13.2321 16.5255 13.405C16.9181 13.5778 17.3423 13.6673 17.7713 13.6677C18.2003 13.6681 18.6246 13.5795 19.0176 13.4074C19.4105 13.2353 19.7634 12.9835 20.054 12.6679C20.1705 12.5506 20.3091 12.4575 20.4618 12.3941C20.6145 12.3307 20.7783 12.2983 20.9436 12.2986C21.109 12.2989 21.2726 12.3321 21.425 12.3961C21.5775 12.4601 21.7157 12.5538 21.8317 12.6716C21.9477 12.7894 22.0392 12.9291 22.1009 13.0825C22.1625 13.2359 22.1931 13.4001 22.1909 13.5654C22.1887 13.7307 22.1537 13.894 22.0879 14.0457C22.0222 14.1974 21.927 14.3345 21.8079 14.4492C21.3056 14.9898 20.6998 15.4237 20.0263 15.7252C19.3528 16.0267 18.6256 16.1896 17.8879 16.2041C16.3343 16.1599 14.854 15.5335 13.7406 14.4492Z" fill="#815656"/>
</svg>
