<svg width="60" height="64" viewBox="0 0 60 64" fill="none" xmlns="http://www.w3.org/2000/svg">
<path d="M44.8304 22.72L0.44043 8.91L47.4104 7.62L44.8304 22.72Z" fill="#DADADA"/>
<path d="M24.6104 22.99C25.0204 22.7 25.4504 22.44 25.5904 21.93V21.92C26.1604 19.81 26.8104 17.72 27.5304 15.65C26.8004 15.44 26.1304 15.29 25.7304 15.25L23.8304 15.05C20.6904 14.9 19.9304 18.11 21.7004 19.41L19.7104 19.79C17.3304 20.25 17.0704 23.57 19.0704 24.46C16.9104 25.02 16.6604 28.03 18.4304 29.01C16.4404 29.65 16.6004 32.76 18.5804 33.21C18.7504 32.35 19.0004 31.46 19.3504 30.53C20.6804 27.04 22.1204 24.76 24.6104 22.99Z" fill="#FAC48E"/>
<path d="M31.3205 20.22C30.7505 22.19 31.3405 24.29 32.8205 25.52L34.7605 27.13L31.8805 18.3L31.5205 19.56C31.4605 19.74 31.4005 19.96 31.3205 20.22Z" fill="#FAC48E"/>
<path d="M44.8305 22.72L1.12048 9.03L48.5605 8.91L44.8305 22.72Z" fill="#C6C6C6"/>
<path d="M32.4005 35.25C34.8305 33.04 35.6505 29.91 34.7505 27.14L32.8105 25.53C31.3305 24.3 30.7405 22.19 31.3105 20.23C31.3905 19.97 31.4505 19.74 31.5005 19.57L31.8605 18.31C32.4405 16.3 32.8605 14.9 33.0205 14.51C33.5205 13.2 33.0105 11.7 31.8205 11.15L31.7705 11.13C30.5805 10.58 29.1405 11.26 28.6005 12.67C28.2205 13.66 27.8605 14.66 27.5105 15.66C26.7905 17.73 26.1405 19.82 25.5705 21.93V21.94C25.4305 22.44 25.0005 22.7 24.5905 23C22.1105 24.77 20.6605 27.05 19.3405 30.53C18.9905 31.46 18.7405 32.35 18.5705 33.21C18.3105 34.55 18.2705 35.8 18.4605 36.96H18.4505L17.6005 40.86H27.8405L28.0205 40.04L32.4005 35.25Z" fill="#FFCF9F"/>
<path d="M16.1204 46.06H15.4104V63.9H29.1204V46.06H28.3604H16.1204ZM17.2704 47.41C17.6904 47.41 18.0204 47.75 18.0204 48.17C18.0204 48.59 17.6804 48.92 17.2604 48.92C16.8404 48.92 16.5104 48.58 16.5104 48.16C16.5104 47.74 16.8504 47.4 17.2704 47.41ZM17.2304 53.63C16.8104 53.63 16.4804 53.29 16.4804 52.87C16.4804 52.45 16.8204 52.12 17.2404 52.12C17.6604 52.12 17.9904 52.46 17.9904 52.88C17.9804 53.3 17.6404 53.64 17.2304 53.63ZM17.2404 51.25C16.8204 51.25 16.4904 50.91 16.4904 50.49C16.4904 50.07 16.8304 49.74 17.2504 49.74C17.6704 49.74 18.0004 50.08 18.0004 50.5C18.0004 50.92 17.6604 51.26 17.2404 51.25Z" fill="#28324E"/>
<path d="M17.6305 40.86H16.1205V46.06H28.3605V40.86H27.8405H17.6305Z" fill="#EDEDED"/>
<path d="M16.5104 48.15C16.5104 48.57 16.8404 48.91 17.2604 48.91C17.6804 48.91 18.0204 48.58 18.0204 48.16C18.0204 47.74 17.6904 47.4 17.2704 47.4C16.8504 47.4 16.5104 47.74 16.5104 48.15Z" fill="white"/>
<path d="M17.2505 49.75C16.8305 49.75 16.4905 50.08 16.4905 50.5C16.4905 50.92 16.8205 51.26 17.2405 51.26C17.6605 51.26 18.0005 50.93 18.0005 50.51C18.0005 50.09 17.6705 49.75 17.2505 49.75Z" fill="white"/>
<path d="M17.2305 53.63C17.6447 53.63 17.9805 53.2942 17.9805 52.88C17.9805 52.4658 17.6447 52.13 17.2305 52.13C16.8163 52.13 16.4805 52.4658 16.4805 52.88C16.4805 53.2942 16.8163 53.63 17.2305 53.63Z" fill="white"/>
<path d="M42.5304 2.14999L0.44043 8.90999L47.4104 7.61999L42.5304 2.14999Z" fill="#EDEDED"/>
<path d="M14.3904 0.56L14.5004 0L15.4704 0.19L15.3604 0.75C16.1704 1.09 16.4704 1.82 16.2704 2.84L16.2204 3.08L15.1004 2.86L15.1604 2.55C15.2704 2.01 15.0904 1.76 14.7104 1.69C14.3304 1.62 14.0804 1.78 13.9704 2.32C13.6704 3.87 15.9704 4.4 15.5504 6.56C15.3504 7.58 14.7804 8.15 13.9004 8.16L13.8104 8.7L12.8404 8.51L12.9504 7.96C12.1304 7.62 11.8304 6.88 12.0304 5.86L12.1304 5.34L13.2504 5.56L13.1304 6.15C13.0204 6.69 13.2204 6.93 13.6004 7C13.9804 7.07 14.2504 6.93 14.3604 6.39C14.6604 4.84 12.3604 4.31 12.7804 2.15C12.9804 1.15 13.5304 0.58 14.3904 0.56Z" fill="#00A683"/>
<path d="M18.0104 2.17C18.9304 2.35 19.2204 1.95 19.5004 1.48L20.3004 1.64L18.8204 9.18L17.6304 8.95L18.7604 3.2L17.8404 3.01L18.0104 2.17Z" fill="#00A683"/>
<path d="M21.2804 3.71C21.5204 2.5 22.2904 1.94 23.4504 2.17C24.6104 2.4 25.1104 3.21 24.8804 4.42L24.1104 8.34C23.8704 9.55 23.1004 10.11 21.9404 9.88C20.7804 9.65 20.2804 8.84 20.5104 7.63L21.2804 3.71ZM21.6804 7.94C21.5704 8.48 21.7704 8.73 22.1504 8.8C22.5304 8.87 22.8004 8.72 22.9104 8.18L23.7104 4.11C23.8204 3.57 23.6204 3.32 23.2404 3.25C22.8604 3.18 22.5904 3.33 22.4804 3.87L21.6804 7.94Z" fill="#00A683"/>
<path d="M25.5505 4.54C25.7905 3.33 26.5605 2.77 27.7205 3C28.8805 3.23 29.3805 4.04 29.1505 5.25L28.3805 9.17C28.1405 10.38 27.3705 10.94 26.2105 10.71C25.0505 10.48 24.5505 9.67 24.7805 8.46L25.5505 4.54ZM25.9505 8.77C25.8405 9.31 26.0405 9.56 26.4205 9.63C26.8005 9.7 27.0705 9.55 27.1805 9.01L27.9805 4.94C28.0905 4.4 27.8905 4.15 27.5105 4.08C27.1305 4 26.8505 4.16 26.7505 4.7L25.9505 8.77Z" fill="#00A683"/>
<path d="M29.8105 5.38C30.0505 4.17 30.8205 3.61 31.9805 3.84C33.1405 4.07 33.6405 4.88 33.4105 6.09L32.6505 10C32.4105 11.21 31.6405 11.77 30.4805 11.54C29.3205 11.31 28.8205 10.5 29.0505 9.29L29.8105 5.38ZM30.2205 9.61C30.1105 10.15 30.3105 10.4 30.6905 10.47C31.0705 10.54 31.3405 10.39 31.4505 9.85L32.2505 5.78C32.3605 5.24 32.1605 4.99 31.7805 4.92C31.4005 4.84 31.1205 5 31.0105 5.54L30.2205 9.61Z" fill="#00A683"/>
<path d="M34.0804 6.21C34.3204 5 35.0904 4.44 36.2504 4.67C37.4104 4.9 37.9104 5.71 37.6804 6.92L36.9104 10.84C36.6704 12.05 35.9004 12.61 34.7404 12.38C33.5804 12.15 33.0804 11.34 33.3104 10.13L34.0804 6.21ZM34.4904 10.44C34.3804 10.98 34.5804 11.23 34.9604 11.3C35.3404 11.37 35.6104 11.22 35.7204 10.68L36.5204 6.61C36.6304 6.07 36.4304 5.82 36.0504 5.75C35.6704 5.68 35.4004 5.83 35.2904 6.37L34.4904 10.44Z" fill="#00A683"/>
<path d="M38.3504 7.05C38.5904 5.84 39.3604 5.28 40.5204 5.51C41.6804 5.74 42.1804 6.55 41.9504 7.76L41.1804 11.68C40.9404 12.89 40.1704 13.45 39.0104 13.22C37.8504 12.99 37.3504 12.18 37.5804 10.97L38.3504 7.05ZM38.7604 11.28C38.6504 11.82 38.8504 12.07 39.2304 12.14C39.6104 12.21 39.8804 12.06 39.9904 11.52L40.7904 7.45C40.9004 6.91 40.7004 6.66 40.3204 6.59C39.9404 6.52 39.6704 6.67 39.5604 7.21L38.7604 11.28Z" fill="#00A683"/>
<path d="M42.6204 7.88C42.8604 6.67 43.6304 6.11 44.7904 6.34C45.9504 6.57 46.4504 7.38 46.2204 8.59L45.4504 12.51C45.2104 13.72 44.4404 14.28 43.2804 14.05C42.1204 13.82 41.6204 13.01 41.8504 11.8L42.6204 7.88ZM43.0204 12.11C42.9104 12.65 43.1104 12.9 43.4904 12.97C43.8704 13.04 44.1404 12.89 44.2504 12.35L45.0504 8.28C45.1604 7.74 44.9604 7.49 44.5804 7.42C44.2004 7.35 43.9304 7.5 43.8204 8.04L43.0204 12.11Z" fill="#00A683"/>
<path d="M59.1604 19.92L0.44043 8.91H48.5604L59.1604 19.92Z" fill="#EDEDED"/>
</svg>
