<svg width="86" height="90" viewBox="0 0 86 90" fill="none" xmlns="http://www.w3.org/2000/svg">
<path d="M56.6505 9.91258V7.79314V7.29314H56.1505H53.5528H53.0528V7.79314V9.89085H50.9551C47.8137 9.89085 45.2597 12.4449 45.2597 15.5863V18.184C45.2597 21.3254 47.8137 23.8794 50.9551 23.8794H56.1505C57.308 23.8794 58.2482 24.8216 58.2482 25.9771V28.5748C58.2482 29.7304 57.308 30.6726 56.1505 30.6726H53.5528H50.9551C49.7976 30.6726 48.8574 29.7304 48.8574 28.5748V28.0748H48.3574H45.7597H45.2597V28.5748C45.2597 31.7163 47.8137 34.2703 50.9551 34.2703H53.0528V36.368V36.868H53.5528H56.1505H56.6505V36.368V34.2485C59.5585 33.9947 61.846 31.5478 61.846 28.5748V25.9771C61.846 22.8357 59.292 20.2817 56.1505 20.2817H50.9551C49.7976 20.2817 48.8574 19.3395 48.8574 18.184V15.5863C48.8574 14.4308 49.7976 13.4886 50.9551 13.4886H56.1505C57.308 13.4886 58.2482 14.4308 58.2482 15.5863V16.0863H58.7482H61.346H61.846V15.5863C61.846 12.6133 59.5585 10.1665 56.6505 9.91258ZM33.2711 20.7817C33.2711 9.58115 42.3523 0.5 53.5528 0.5C64.7534 0.5 73.8345 9.58115 73.8345 20.7817C73.8345 31.9823 64.7534 41.0634 53.5528 41.0634C42.3523 41.0634 33.2711 31.9823 33.2711 20.7817Z" fill="black" stroke="white"/>
<path d="M13.0294 48.0604H1.78868C1.31429 48.0604 0.859334 48.2489 0.523892 48.5843C0.18845 48.9198 0 49.3747 0 49.8491V88.2114C0 88.6858 0.18845 89.1407 0.523892 89.4762C0.859334 89.8116 1.31429 90 1.78868 90H13.0294C13.5414 90 14.0483 89.8992 14.5212 89.7033C14.9942 89.5074 15.4239 89.2202 15.7859 88.8582C16.1479 88.4962 16.435 88.0665 16.6309 87.5935C16.8268 87.1206 16.9276 86.6136 16.9276 86.1017V51.9588C16.9276 50.9249 16.5169 49.9334 15.7859 49.2023C15.0548 48.4712 14.0633 48.0605 13.0294 48.0604Z" fill="black"/>
<path d="M84.0707 52.4516C83.4577 51.5169 82.6215 50.7498 81.6376 50.2195C80.6537 49.6892 79.5531 49.4125 78.4354 49.4145H74.031C72.0995 49.4109 70.2106 49.9826 68.6053 51.0567C67 52.1309 65.7509 53.6588 65.0174 55.4456C64.6117 56.4159 64.0501 57.3133 63.3547 58.1023C62.0863 60.153 60.3355 61.8622 58.2549 63.0809C56.1743 64.2996 53.8271 64.9907 51.4181 65.0941H38.3648C37.6873 65.0776 37.0431 64.7969 36.5698 64.3119C36.0965 63.8269 35.8315 63.1761 35.8315 62.4984C35.8315 61.8207 36.0965 61.1699 36.5698 60.6849C37.0431 60.1999 37.6873 59.9192 38.3648 59.9027H51.351C53.3362 59.8445 55.2408 59.1043 56.7443 57.8067C56.5733 55.5187 55.5414 53.3806 53.8566 51.8231C52.1718 50.2657 49.9593 49.4048 47.665 49.4138H38.0896C36.3121 49.4087 34.5511 49.7556 32.9084 50.4345C31.2656 51.1134 29.7735 52.1109 28.5182 53.3694L28.2759 53.6098C26.5917 55.2948 24.4516 56.4505 22.119 56.9347V82.9762H56.6808C61.899 82.9798 67.0034 81.4516 71.3612 78.5813C75.7189 75.7109 79.1384 71.6247 81.1955 66.8291L84.6344 58.8241C85.077 57.7987 85.2572 56.6791 85.1588 55.5666C85.0604 54.454 84.6864 53.3835 84.0707 52.4516Z" fill="black"/>
</svg>
