<svg width="92" height="92" viewBox="0 0 92 92" fill="none" xmlns="http://www.w3.org/2000/svg">
<path d="M45.8151 90.6302C70.5658 90.6302 90.6302 70.5658 90.6302 45.8151C90.6302 21.0644 70.5658 1 45.8151 1C21.0644 1 1 21.0644 1 45.8151C1 70.5658 21.0644 90.6302 45.8151 90.6302Z" stroke="black" stroke-width="2" stroke-miterlimit="10" stroke-linecap="round"/>
<path d="M55.0265 65.474C54.7539 62.4639 54.8584 60.3632 54.8584 57.6126C56.2216 56.8975 58.664 52.3375 59.0767 48.4853C60.1485 48.3975 61.8384 47.3518 62.3332 43.2233C62.6002 41.0068 61.5396 39.7594 60.8935 39.3673C62.6376 34.1221 66.2601 17.8952 54.1937 16.2184C52.9519 14.0374 49.7719 12.9338 45.6396 12.9338C29.1065 13.2382 27.1123 25.4186 30.7367 39.3673C30.0925 39.7594 29.0318 41.0068 29.297 43.2233C29.7937 47.3518 31.4817 48.3975 32.5536 48.4853C32.9644 52.3357 35.5039 56.8975 36.8708 57.6126C36.8708 60.3632 36.9735 62.4639 36.7008 65.474C34.3462 71.8041 22.2536 72.2989 15.2773 78.4031C22.571 85.7472 34.391 90.9999 46.8645 90.9999C59.3381 90.9999 74.0001 81.1518 76.4406 78.4647C69.5074 72.3045 57.3868 71.8265 55.0265 65.474Z" fill="black"/>
</svg>
