<svg width="34" height="45" viewBox="0 0 34 45" fill="none" xmlns="http://www.w3.org/2000/svg">
<path d="M22.1433 35.3324C21.9252 35.3324 21.7483 35.5152 21.7483 35.7333C21.7483 35.9514 21.9311 36.1283 22.1492 36.1283C22.3673 36.1283 22.5442 35.9455 22.5442 35.7274C22.5442 35.5093 22.3614 35.3324 22.1433 35.3324Z" fill="white"/>
<path d="M22.1494 36.5704C21.9313 36.5704 21.7544 36.7532 21.7544 36.9713C21.7544 37.1895 21.9372 37.3663 22.1553 37.3663C22.3734 37.3663 22.5503 37.1836 22.5503 36.9654C22.5503 36.7473 22.3675 36.5704 22.1494 36.5704Z" fill="white"/>
<path d="M22.1611 37.8262C21.943 37.8262 21.7661 38.0089 21.7661 38.2271C21.7661 38.4452 21.9489 38.6221 22.167 38.6221C22.3851 38.6221 22.562 38.4393 22.562 38.2212C22.5561 37.9971 22.3792 37.8203 22.1611 37.8262Z" fill="white"/>
<path d="M28.0388 31.8777H21.5774V34.6249H28.0388V31.8777Z" fill="#EDEDED"/>
<path d="M10.8772 35.3324C11.0953 35.3324 11.2722 35.5152 11.2722 35.7333C11.2722 35.9514 11.0894 36.1283 10.8713 36.1283C10.6532 36.1283 10.4763 35.9455 10.4763 35.7274C10.4763 35.5093 10.6591 35.3324 10.8772 35.3324Z" fill="white"/>
<path d="M10.8714 36.5704C11.0895 36.5704 11.2663 36.7532 11.2663 36.9713C11.2663 37.1895 11.0836 37.3663 10.8655 37.3663C10.6473 37.3663 10.4705 37.1836 10.4705 36.9654C10.4705 36.7473 10.6473 36.5704 10.8714 36.5704Z" fill="white"/>
<path d="M10.8594 37.8262C11.0775 37.8262 11.2544 38.0089 11.2544 38.2271C11.2544 38.4452 11.0716 38.6221 10.8535 38.6221C10.6354 38.6221 10.4585 38.4393 10.4585 38.2212C10.4644 37.9971 10.6413 37.8203 10.8594 37.8262Z" fill="white"/>
<path d="M11.449 31.8777H4.98755V34.6249H11.449V31.8777Z" fill="#EDEDED"/>
<path d="M28.4103 34.6249H21.1765V44.04H28.4103V34.6249Z" fill="#28324E"/>
<path d="M28.7051 17.3276L28.6874 17.3335C28.1627 17.534 27.9328 18.1176 28.1745 18.6246L29.8901 22.2504C30.1318 22.7633 30.7567 23.0109 31.2814 22.8104L31.2991 22.8045C31.8238 22.6041 32.0537 22.0204 31.812 21.5134L30.0964 17.8877C29.8547 17.3748 29.2298 17.1213 28.7051 17.3276Z" fill="#FAC48E"/>
<path d="M28.4634 15.3585L28.4457 15.3644C27.921 15.5649 27.6911 16.1485 27.9328 16.6555L29.6484 20.2813C29.8901 20.7942 30.515 21.0418 31.0397 20.8413L31.0574 20.8354C31.5821 20.635 31.812 20.0513 31.5703 19.5443L29.8488 15.9186C29.613 15.4057 28.9881 15.1522 28.4634 15.3585Z" fill="#FAC48E"/>
<path d="M30.6684 18.9194H30.6448C30.0671 18.8664 29.5777 19.2673 29.5483 19.8155L29.3419 23.7301C29.3183 24.2784 29.7841 24.7324 30.3618 24.7854H30.3854C30.9632 24.8385 31.4525 24.4376 31.482 23.8893L31.6647 20.0042C31.6942 19.4618 31.2462 18.9725 30.6684 18.9194Z" fill="#FAC48E"/>
<path d="M29.6484 14.6157L29.6248 14.6216C29.0235 14.7572 28.6756 15.3409 28.8525 15.9245L30.1082 20.0513C30.2851 20.635 30.9159 20.9946 31.5231 20.8531L31.5467 20.8472C32.1481 20.7116 32.4959 20.128 32.319 19.5443L31.0633 15.4175C30.8805 14.8339 30.2497 14.4742 29.6484 14.6157Z" fill="#FAC48E"/>
<path d="M31.4347 18.7425L31.4112 18.7367C30.7921 18.5952 30.1967 18.943 30.0788 19.5266L29.2063 23.6712C29.0883 24.2489 29.5187 24.8031 30.1377 24.9505L30.1613 24.9564C30.7804 25.0979 31.3758 24.75 31.4937 24.1664L32.3426 20.0513C32.4606 19.4736 32.0538 18.884 31.4347 18.7425Z" fill="#FAC48E"/>
<path d="M22.1553 32.2785L22.7802 29.6786C22.9335 29.0537 23.1988 28.4642 23.5761 27.9454L24.5665 26.5776C24.6903 26.4067 24.7788 26.218 24.8377 26.0176L25.8635 22.3388C26.0168 21.7669 26.6417 21.4545 27.249 21.6313L27.2725 21.6372C27.8798 21.8141 28.2512 22.4213 28.092 22.9932L27.414 25.4693L29.2416 23.5474L30.7745 19.957L30.3854 15.9953C30.3264 15.3998 30.7862 14.8928 31.4112 14.8692H31.4347C32.0597 14.8456 32.6197 15.3114 32.6728 15.9068C32.6728 15.9068 33.0147 20.6291 33.0147 20.6409C33.0147 20.6409 32.3485 23.7537 32.0479 24.7029C31.9889 24.8797 31.871 25.1097 31.759 25.3573C31.3109 26.3654 29.9904 29.1422 28.1922 31.0641L26.288 34L22.1553 32.2785Z" fill="#FFCF9F"/>
<path d="M11.8441 34.6249H4.61035V44.04H11.8441V34.6249Z" fill="#28324E"/>
<path d="M4.31558 17.3277L4.33327 17.3336C4.85797 17.534 5.08789 18.1177 4.84618 18.6247L3.1306 22.2563C2.88888 22.7633 2.26396 23.0168 1.73926 22.8104L1.72158 22.8046C1.19688 22.6041 0.966957 22.0205 1.20867 21.5134L2.92425 17.8877C3.16597 17.3748 3.79089 17.1213 4.31558 17.3277Z" fill="#FAC48E"/>
<path d="M4.55728 15.3586L4.57497 15.3645C5.09967 15.5649 5.32959 16.1486 5.08788 16.6556L3.37229 20.2872C3.13058 20.8001 2.50566 21.0477 1.98096 20.8473L1.96328 20.8414C1.43858 20.6409 1.20866 20.0573 1.45037 19.5502L3.16595 15.9245C3.40767 15.4057 4.03259 15.1522 4.55728 15.3586Z" fill="#FAC48E"/>
<path d="M2.3522 18.9194H2.37578C2.95354 18.8664 3.44286 19.2673 3.47234 19.8155L3.67868 23.7301C3.70226 24.2784 3.23652 24.7324 2.65877 24.7854H2.63518C2.05743 24.8385 1.5681 24.4376 1.53863 23.8893L1.35587 20.0042C1.32639 19.4618 1.77445 18.9725 2.3522 18.9194Z" fill="#FAC48E"/>
<path d="M3.37223 14.6157L3.39582 14.6216C3.99715 14.7572 4.34499 15.3409 4.16812 15.9245L2.91239 20.0514C2.73552 20.635 2.10471 20.9946 1.49747 20.8531L1.47979 20.8414C0.87845 20.7058 0.530617 20.1221 0.707481 19.5385L1.96322 15.4116C2.14008 14.8339 2.7709 14.4743 3.37223 14.6157Z" fill="#FAC48E"/>
<path d="M1.58007 18.7426L1.60365 18.7367C2.22268 18.5952 2.81812 18.943 2.93603 19.5267L3.80856 23.6712C3.92647 24.2489 3.4961 24.8031 2.87707 24.9505L2.85349 24.9564C2.23447 25.0979 1.63903 24.75 1.52112 24.1664L0.678064 20.0514C0.560154 19.4736 0.966942 18.8841 1.58007 18.7426Z" fill="#FAC48E"/>
<path d="M10.8654 32.2786L10.2404 29.6787C10.0872 29.0537 9.82185 28.4642 9.44454 27.9454L8.45411 26.5777C8.3303 26.4067 8.24187 26.218 8.18291 26.0176L7.1571 22.3388C7.00382 21.7669 6.3789 21.4545 5.77167 21.6314L5.74808 21.6431C5.14085 21.82 4.76944 22.4272 4.92861 22.9991L5.60659 25.4752L3.779 23.5533L2.24617 19.9629L2.63528 16.0012C2.69423 15.4057 2.23438 14.8987 1.60946 14.8751H1.58588C0.960962 14.8516 0.400892 15.3173 0.341937 15.9127C0.341937 15.9127 0 20.635 0 20.6468C0 20.6468 0.666188 23.7596 0.966857 24.7088C1.02581 24.8856 1.14372 25.1156 1.25574 25.3632C1.70379 26.3713 3.02438 29.1481 4.8225 31.07L6.72673 34.0059L10.8654 32.2786Z" fill="#FFCF9F"/>
<path d="M19.1189 29.9675C19.1189 33.0627 16.5426 37.0775 16.5426 37.0775C16.5426 37.0775 13.9663 33.0627 13.9663 29.9675C13.9663 26.8724 15.1218 25.8702 16.5426 25.8702C17.9634 25.8702 19.1189 26.8724 19.1189 29.9675Z" fill="#FF9C14"/>
<path d="M18.2759 28.6234C18.2759 30.7104 16.5426 33.4105 16.5426 33.4105C16.5426 33.4105 14.8093 30.7045 14.8093 28.6234C14.8093 26.5364 15.5875 25.8643 16.5426 25.8643C17.5036 25.8643 18.2759 26.5364 18.2759 28.6234Z" fill="#FEC40C"/>
<path d="M17.5331 27.4384C17.5331 28.6293 16.5427 30.1739 16.5427 30.1739C16.5427 30.1739 15.5522 28.6293 15.5522 27.4384C15.5522 26.2475 15.9944 25.8584 16.5427 25.8584C17.091 25.8643 17.5331 26.2475 17.5331 27.4384Z" fill="white"/>
<path d="M19.178 23.8362H13.9133V25.1863H19.178V23.8362Z" fill="#706F6F"/>
<path d="M20.5221 11.3319L20.1684 24.2725H12.9229L12.5691 11.3319C12.5102 8.97964 13.1115 6.60966 14.3496 4.49319C14.4085 4.38118 14.4793 4.27506 14.5441 4.16304L16.5427 0.950012L18.5412 4.16894L18.7358 4.49909C19.9738 6.61556 20.587 8.97964 20.5221 11.3319Z" fill="#DADADA"/>
<path d="M16.5427 28.2284C17.1776 28.2284 17.6923 25.9637 17.6923 23.17C17.6923 20.3764 17.1776 18.1117 16.5427 18.1117C15.9078 18.1117 15.3931 20.3764 15.3931 23.17C15.3931 25.9637 15.9078 28.2284 16.5427 28.2284Z" fill="#F35D4B"/>
<path d="M13.4712 23.17C13.4712 25.9645 13.4358 28.2284 12.7637 28.2284C12.0916 28.2284 11.0422 25.9645 11.0422 23.17C11.0422 20.3756 12.0916 18.1117 12.7637 18.1117C13.4358 18.1117 13.4712 20.3756 13.4712 23.17Z" fill="#F35D4B"/>
<path d="M13.4712 23.17C13.4712 25.9645 13.4358 28.2284 12.7637 28.2284C12.0916 28.2284 11.0422 25.9645 11.0422 23.17C11.0422 20.3756 12.0916 18.1117 12.7637 18.1117C13.4358 18.1117 13.4712 20.3756 13.4712 23.17Z" fill="#F35D4B"/>
<path d="M19.6143 23.17C19.6143 25.9645 19.6496 28.2284 20.3217 28.2284C20.9938 28.2284 22.0432 25.9645 22.0432 23.17C22.0432 20.3756 20.9938 18.1117 20.3217 18.1117C19.6555 18.1117 19.6143 20.3756 19.6143 23.17Z" fill="#F35D4B"/>
<path d="M19.6143 23.17C19.6143 25.9645 19.6496 28.2284 20.3217 28.2284C20.9938 28.2284 22.0432 25.9645 22.0432 23.17C22.0432 20.3756 20.9938 18.1117 20.3217 18.1117C19.6555 18.1117 19.6143 20.3756 19.6143 23.17Z" fill="#F35D4B"/>
<path d="M13.4712 23.17C13.4712 25.9645 13.4358 28.2284 12.7637 28.2284C12.0916 28.2284 11.0422 25.9645 11.0422 23.17C11.0422 20.3756 12.0916 18.1117 12.7637 18.1117C13.4358 18.1117 13.4712 20.3756 13.4712 23.17Z" fill="#FF715F"/>
<path d="M19.6143 23.17C19.6143 25.9645 19.6496 28.2284 20.3217 28.2284C20.9938 28.2284 22.0432 25.9645 22.0432 23.17C22.0432 20.3756 20.9938 18.1117 20.3217 18.1117C19.6555 18.1117 19.6143 20.3756 19.6143 23.17Z" fill="#FF715F"/>
<path d="M16.1477 9.49845V9.0386H16.9436V9.49845C17.6334 9.63994 17.9871 10.1705 17.9871 11.0077V11.2022H17.0674V10.9487C17.0674 10.5066 16.8906 10.3415 16.584 10.3415C16.2774 10.3415 16.1006 10.5066 16.1006 10.9487C16.1006 12.2222 17.9989 12.2811 17.9989 14.0498C17.9989 14.8869 17.6393 15.4293 16.9495 15.5708V16.0188H16.1536V15.5708C15.458 15.4293 15.1042 14.8928 15.1042 14.0498V13.6253H16.0239V14.1087C16.0239 14.5509 16.2185 14.71 16.5251 14.71C16.8316 14.71 17.0262 14.5509 17.0262 14.1087C17.0262 12.8353 15.1278 12.7763 15.1278 11.0077C15.1219 10.1823 15.4639 9.65173 16.1477 9.49845Z" fill="#00A683"/>
<path d="M18.7418 4.49909C18.0461 4.58752 17.3033 4.63468 16.5428 4.63468C15.7822 4.63468 15.0394 4.58752 14.3438 4.49909C14.4027 4.38707 14.4735 4.28095 14.5383 4.16894L16.5428 0.950012L18.5413 4.16894L18.7418 4.49909Z" fill="#F35D4B"/>
</svg>
